<?xml version="1.0" encoding="UTF-8" standalone="no"?>
<svg
   width="128"
   height="128"
   version="1.1"
   id="svg6"
   sodipodi:docname="icon.svg"
   inkscape:version="1.4.4 (dcaf3e7d9e, 2026-05-05)"
   xmlns:inkscape="http://www.inkscape.org/namespaces/inkscape"
   xmlns:sodipodi="http://sodipodi.sourceforge.net/DTD/sodipodi-0.dtd"
   xmlns="http://www.w3.org/2000/svg"
   xmlns:svg="http://www.w3.org/2000/svg">
  <defs
     id="defs6" />
  <sodipodi:namedview
     id="namedview6"
     pagecolor="#ffffff"
     bordercolor="#000000"
     borderopacity="0.25"
     inkscape:showpageshadow="2"
     inkscape:pageopacity="0.0"
     inkscape:pagecheckerboard="0"
     inkscape:deskcolor="#d1d1d1"
     inkscape:zoom="6.2578125"
     inkscape:cx="64"
     inkscape:cy="64"
     inkscape:window-width="1728"
     inkscape:window-height="1052"
     inkscape:window-x="0"
     inkscape:window-y="0"
     inkscape:window-maximized="1"
     inkscape:current-layer="svg6" />
  <path
     style="display:inline;fill:#7f7f7f;fill-opacity:1"
     d="M 46,64 38,49 56,14 h 16 z"
     id="path3"
     inkscape:label="M_unobstructed" />
  <path
     style="fill:#ff0000;fill-opacity:1;opacity:1"
     d="m 38 79 8 -15 26 50 -16 0 z"
     id="path1"
     inkscape:label="N_unobstructed" />
  <path
     style="fill:#00ff00;fill-opacity:1"
     d="m 30,98 0,16 68,-0 V 98 l -26,0 V 30 h 26 l -0,-16 -68,0 0,16 26,-0 0,68 z"
     id="path11"
     inkscape:label="I" />
  <path
     id="path14"
     style="fill:#0000ff;fill-opacity:1;stroke-width:2.40262"
     d="M 56 14 L 56 56 L 56 72 L 56 114 L 72 114 L 72 74 L 108 114 L 124 114 L 86 72 L 98 72 L 98 72 A 26 29 0 0 0 124 43 A 26 29 0 0 0 98 14 L 56 14 z M 72 30 L 98 30 A 12 13 0 0 1 110 43 A 12 13 0 0 1 98 56 A 12 13 0 0 1 98 56 L 98 56 L 72 56 L 72 30 z"
     inkscape:label="R" />
  <path
     id="path4"
     style="display:inline;fill:#7fbf7f;fill-opacity:1"
     d="M 56 14 L 47.771484 30 L 56 30 L 56 14 z "
     inkscape:label="I_M" />
  <path
     id="path2"
     style="fill:#bf7f7f;fill-opacity:1"
     d="M 4 14 L 4 114 L 20 114 L 20 44.587891 L 38 79 L 46 64 L 20 14 L 4 14 z "
     inkscape:label="N_M" />
  <path
     style="fill:#7f7fbf;fill-opacity:1"
     d="m 56 14 16 0 V 114 H 56 Z"
     id="path5"
     inkscape:label="R_M" />
</svg>
